<svg width="60" height="60" viewBox="0 0 60 60" fill="none" xmlns="http://www.w3.org/2000/svg">
<g clip-path="url(#clip0_217_165)">
<rect width="60" height="60" rx="30" fill="#1F1F1F"/>
<path d="M19.3627 54.522C17.8547 54.522 16.8687 53.652 16.4047 51.912L6.37066 12.994C6.68 12.9167 6.912 12.878 7.06666 12.878C7.80133 12.878 8.45866 13.11 9.03866 13.574C9.65733 13.9993 10.044 14.5213 10.1987 15.14L18.0867 48.722L17.4487 50.926L17.6807 51.042L28.5847 13.806C28.778 13.1873 29.242 12.878 29.9767 12.878C30.7113 12.878 31.1753 13.1873 31.3687 13.806L41.4027 48.664L40.8807 50.868L41.1127 50.984L49.8127 15.14C49.9673 14.5213 50.3347 13.9993 50.9147 13.574C51.5333 13.11 52.1713 12.878 52.8287 12.878C53.0607 12.878 53.3313 12.9167 53.6407 12.994L43.6067 51.912C43.1427 53.652 42.1567 54.522 40.6487 54.522L29.5127 16.3H29.2807L29.8607 18.272L19.3627 54.522Z" fill="#17C147"/>
</g>
<defs>
<clipPath id="clip0_217_165">
<rect width="60" height="60" rx="30" fill="white"/>
</clipPath>
</defs>
</svg>
