<?xml version='1.0' encoding='UTF-8'?>
<!DOCTYPE svg PUBLIC "-//W3C//DTD SVG 1.1//EN" "http://www.w3.org/Graphics/SVG/1.1/DTD/svg11.dtd">

<svg display='none' xmlns='http://www.w3.org/2000/svg'>
    <symbol id='lollipop' viewBox='0 0 512 512'>
        <path d="M467.776,44.224c-45.745-45.745-115.035-56.962-172.361-29.15c-19.617-13.929-47.059-12.12-64.629,5.45
			c-17.571,17.571-19.379,45.011-5.45,64.629c-20.284,41.806-19.805,89.971-0.32,130.732L14.701,426.202
			c-19.601,19.601-19.601,51.495,0,71.096c9.8,9.8,22.674,14.701,35.548,14.701c12.874,0,25.748-4.901,35.549-14.701
			l210.319-210.318c20.419,9.762,42.692,14.761,65.101,14.761c22.312,0,44.753-4.973,65.612-15.09
			c8.678,6.168,18.884,9.264,29.097,9.263c12.872-0.001,25.749-4.901,35.548-14.7c9.496-9.495,14.726-22.12,14.726-35.549
			c0-10.575-3.257-20.644-9.273-29.087C524.738,159.253,513.519,89.968,467.776,44.224z M62.098,473.6
			c-3.165,3.165-7.373,4.909-11.849,4.909c-4.477,0-8.684-1.744-11.85-4.909c-3.165-3.165-4.908-7.373-4.908-11.849
			s1.743-8.684,4.908-11.849l204.894-204.894c3.467,4.332,7.195,8.512,11.191,12.508c3.997,3.997,8.18,7.721,12.512,11.188
			L62.098,473.6z M278.183,233.816c-32.525-32.526-42.593-80.341-27.568-122.365l149.933,149.933
			C358.523,276.408,310.709,266.341,278.183,233.816z M467.776,257.515c-3.165,3.165-7.373,4.909-11.849,4.909
			c-4.477,0-8.684-1.744-11.85-4.909L254.484,67.923c-3.165-3.165-4.909-7.375-4.909-11.849c0-4.477,1.744-8.685,4.909-11.85
			c3.165-3.165,7.373-4.909,11.849-4.909c4.477,0,8.684,1.744,11.85,4.909l189.593,189.592c3.165,3.165,4.909,7.375,4.909,11.849
			C472.684,250.142,470.941,254.35,467.776,257.515z M471.645,190.288L321.712,40.354c42.023-15.024,89.839-4.958,122.365,27.569
			C476.603,100.449,486.67,148.264,471.645,190.288z"/>
    </symbol>
    <symbol id='ice_cream' viewBox='0 0 435.773 435.773'>
        <path d="M402.089,33.685c-21.721-21.721-50.6-33.684-81.317-33.684c-30.717,0-59.597,11.963-81.316,33.684L30.858,242.282
        l49.497,49.497L13.18,358.954C4.682,367.452,0,378.754,0,390.774c0,12.02,4.681,23.32,13.181,31.82
        c8.5,8.499,19.801,13.179,31.82,13.179c12.02,0,23.32-4.681,31.818-13.18l67.176-67.175l49.497,49.497l208.597-208.597
        c21.721-21.72,33.684-50.599,33.684-81.316C435.773,84.285,423.81,55.405,402.089,33.685z M55.605,401.379
        c-2.832,2.833-6.599,4.393-10.604,4.393c-4.007,0-7.774-1.56-10.607-4.393S30,394.78,30,390.774c0-4.007,1.56-7.773,4.394-10.606
        l67.175-67.176l21.214,21.214L55.605,401.379z M126.317,245.816L296.023,76.111l21.213,21.213L147.53,267.03L126.317,245.816z
        M189.957,309.457l-21.213-21.213L338.45,118.538l21.213,21.213L189.957,309.457z"/>
    </symbol>
    <symbol id='candy' viewBox='0 0 489.6 489.6'>
        <ellipse transform="matrix(0.7071 0.7071 -0.7071 0.7071 245.0122 -101.5135)" cx="245.044" cy="244.999" rx="115.899" ry="178.098"/>
        <path d="M461.65,72.3l-38.1-5.4l-5.5-38.1L389.25,0l-36.2,84c12.1,5.1,22.6,12.1,31.5,21c9.3,9.3,16.3,19.8,21,31.5l84-36.2
            L461.65,72.3z"/>
        <path d="M84.05,353.1l-84,36.2l28.4,28.4l38.1,5.4l5.4,38.1l28.4,28.4l36.2-84c-12.1-5.1-22.6-12.1-31.5-21
				S89.15,365.2,84.05,353.1z"/>
    </symbol>
    <symbol id='welcome' viewBox='0 0 500 150'>
        <path fill-rule="evenodd" clip-rule="evenodd" d="M500 0H0V150H500V0ZM25.6364 40.1818L46.2273 110H64.3636L76.2273 71H76.7727L88.6364 110H106.773L127.364 40.1818H106.227L96.6818 83.2727H96.1364L84.8182 40.1818H68.1818L56.8636 83.1364H56.3182L46.7727 40.1818H25.6364ZM138.315 107.75C142.361 109.886 147.179 110.955 152.77 110.955C157.611 110.955 161.838 110.227 165.452 108.773C169.088 107.295 172.009 105.227 174.213 102.568C176.418 99.8864 177.815 96.7273 178.406 93.0909H161.224C160.861 94.0682 160.293 94.9091 159.52 95.6136C158.747 96.2955 157.815 96.8182 156.724 97.1818C155.656 97.5455 154.474 97.7273 153.179 97.7273C151.315 97.7273 149.724 97.3523 148.406 96.6023C147.088 95.8523 146.077 94.8182 145.372 93.5C144.668 92.1818 144.315 90.6818 144.315 89V88.1818H178.406V83.8182C178.406 79.6591 177.793 75.9205 176.565 72.6023C175.338 69.2841 173.588 66.4659 171.315 64.1477C169.043 61.8068 166.304 60.0227 163.099 58.7955C159.895 57.5682 156.315 56.9545 152.361 56.9545C146.952 56.9545 142.259 58.0795 138.281 60.3295C134.304 62.5795 131.224 65.7273 129.043 69.7727C126.861 73.8182 125.77 78.5455 125.77 83.9545C125.77 89.5909 126.849 94.4318 129.009 98.4773C131.19 102.5 134.293 105.591 138.315 107.75ZM144.315 77.8182C144.361 76.2955 144.759 74.9659 145.509 73.8295C146.281 72.6932 147.304 71.8068 148.577 71.1705C149.849 70.5114 151.247 70.1818 152.77 70.1818C154.338 70.1818 155.736 70.5114 156.963 71.1705C158.213 71.8068 159.202 72.7045 159.929 73.8636C160.679 75 161.065 76.3182 161.088 77.8182H144.315ZM204.903 110V40.1818H186.085V110H204.903ZM215.821 98.1023C217.98 102.148 221.082 105.307 225.128 107.58C229.173 109.83 234.037 110.955 239.719 110.955C244.901 110.955 249.355 110.023 253.082 108.159C256.832 106.295 259.73 103.659 261.776 100.25C263.821 96.8182 264.878 92.7955 264.946 88.1818H247.491C247.355 90 246.946 91.5455 246.264 92.8182C245.605 94.0682 244.741 95.0227 243.673 95.6818C242.605 96.3182 241.378 96.6364 239.991 96.6364C238.355 96.6364 236.923 96.1705 235.696 95.2386C234.469 94.2841 233.514 92.8636 232.832 90.9773C232.151 89.0682 231.81 86.6818 231.81 83.8182C231.81 80.9545 232.151 78.5795 232.832 76.6932C233.514 74.7841 234.469 73.3636 235.696 72.4318C236.923 71.4773 238.355 71 239.991 71C242.082 71 243.787 71.7273 245.105 73.1818C246.446 74.6136 247.241 76.7045 247.491 79.4545H264.946C264.923 74.9091 263.878 70.9545 261.81 67.5909C259.741 64.2045 256.821 61.5909 253.048 59.75C249.298 57.8864 244.855 56.9545 239.719 56.9545C234.037 56.9545 229.173 58.0909 225.128 60.3636C221.082 62.6136 217.98 65.7727 215.821 69.8409C213.662 73.8864 212.582 78.5909 212.582 83.9545C212.582 89.3182 213.662 94.0341 215.821 98.1023ZM274.04 98.1023C276.199 102.148 279.301 105.307 283.347 107.58C287.392 109.83 292.256 110.955 297.938 110.955C303.619 110.955 308.483 109.83 312.528 107.58C316.574 105.307 319.676 102.148 321.835 98.1023C323.994 94.0341 325.074 89.3182 325.074 83.9545C325.074 78.5909 323.994 73.8864 321.835 69.8409C319.676 65.7727 316.574 62.6136 312.528 60.3636C308.483 58.0909 303.619 56.9545 297.938 56.9545C292.256 56.9545 287.392 58.0909 283.347 60.3636C279.301 62.6136 276.199 65.7727 274.04 69.8409C271.881 73.8864 270.801 78.5909 270.801 83.9545C270.801 89.3182 271.881 94.0341 274.04 98.1023ZM302.199 95.4432C301.04 96.5114 299.665 97.0455 298.074 97.0455C296.392 97.0455 294.949 96.5114 293.744 95.4432C292.54 94.375 291.619 92.8523 290.983 90.875C290.347 88.8977 290.028 86.5455 290.028 83.8182C290.028 81.0682 290.347 78.7159 290.983 76.7614C291.619 74.7841 292.54 73.2614 293.744 72.1932C294.949 71.125 296.392 70.5909 298.074 70.5909C299.665 70.5909 301.04 71.125 302.199 72.1932C303.358 73.2614 304.256 74.7841 304.892 76.7614C305.528 78.7159 305.847 81.0682 305.847 83.8182C305.847 86.5455 305.528 88.8977 304.892 90.875C304.256 92.8523 303.358 94.375 302.199 95.4432ZM332.71 57.6364V110H351.528V79.4545C351.528 77.9318 351.778 76.625 352.278 75.5341C352.801 74.4205 353.528 73.5682 354.46 72.9773C355.392 72.3864 356.506 72.0909 357.801 72.0909C359.756 72.0909 361.312 72.75 362.472 74.0682C363.631 75.3636 364.21 77.1591 364.21 79.4545V110H382.21V79.4545C382.21 77.1591 382.767 75.3636 383.881 74.0682C385.017 72.75 386.551 72.0909 388.483 72.0909C390.438 72.0909 391.994 72.75 393.153 74.0682C394.312 75.3636 394.892 77.1591 394.892 79.4545V110H413.71V74.6818C413.71 69.3182 412.142 65.0227 409.006 61.7955C405.892 58.5682 401.824 56.9545 396.801 56.9545C392.915 56.9545 389.528 57.9318 386.642 59.8864C383.756 61.8182 381.869 64.3864 380.983 67.5909H380.438C379.892 64.3864 378.29 61.8182 375.631 59.8864C372.972 57.9318 369.801 56.9545 366.119 56.9545C362.483 56.9545 359.347 57.9091 356.71 59.8182C354.074 61.7273 352.21 64.3182 351.119 67.5909H350.574V57.6364H332.71ZM433.628 107.75C437.673 109.886 442.491 110.955 448.082 110.955C452.923 110.955 457.151 110.227 460.764 108.773C464.401 107.295 467.321 105.227 469.526 102.568C471.73 99.8864 473.128 96.7273 473.719 93.0909H456.537C456.173 94.0682 455.605 94.9091 454.832 95.6136C454.06 96.2955 453.128 96.8182 452.037 97.1818C450.969 97.5455 449.787 97.7273 448.491 97.7273C446.628 97.7273 445.037 97.3523 443.719 96.6023C442.401 95.8523 441.389 94.8182 440.685 93.5C439.98 92.1818 439.628 90.6818 439.628 89V88.1818H473.719V83.8182C473.719 79.6591 473.105 75.9205 471.878 72.6023C470.651 69.2841 468.901 66.4659 466.628 64.1477C464.355 61.8068 461.616 60.0227 458.412 58.7955C455.207 57.5682 451.628 56.9545 447.673 56.9545C442.264 56.9545 437.571 58.0795 433.594 60.3295C429.616 62.5795 426.537 65.7273 424.355 69.7727C422.173 73.8182 421.082 78.5455 421.082 83.9545C421.082 89.5909 422.162 94.4318 424.321 98.4773C426.503 102.5 429.605 105.591 433.628 107.75ZM439.628 77.8182C439.673 76.2955 440.071 74.9659 440.821 73.8295C441.594 72.6932 442.616 71.8068 443.889 71.1705C445.162 70.5114 446.56 70.1818 448.082 70.1818C449.651 70.1818 451.048 70.5114 452.276 71.1705C453.526 71.8068 454.514 72.7045 455.241 73.8636C455.991 75 456.378 76.3182 456.401 77.8182H439.628Z"/>
    </symbol>
    <symbol id='cursor' viewBox='0 0 491 464'>
        <path d="M7.04998 428.522L228.728 15.5004C235.658 1.21689 255.739 -1.18728 264.79 16.2075L486.327 429.229C494.883 445.138 477.842 465.291 460.588 457.937L246.335 351.5L32.0815 458.079C15.3231 465.362 -1.71813 445.633 7.04998 428.522ZM246.335 25L69.6289 398.328L238.981 329.102C244.143 326.91 250.012 326.84 253.689 329.102L422.97 398.257L246.335 25Z" fill="black"/>
    </symbol>
    <symbol id='theme_Sun' viewBox='0 0 40 40'>
        <path d="M20 33.7838C27.6004 33.7838 33.7839 27.6004 33.7839 19.9999C33.7839 12.3995 27.6004 6.21603 20 6.21603C12.3995 6.21603 6.21606 12.3995 6.21606 19.9999C6.21606 27.6004 12.3995 33.7838 20 33.7838ZM20 7.80966C26.7217 7.80966 32.1902 13.2782 32.1902 19.9999C32.1902 26.7217 26.7217 32.1902 20 32.1902C13.2782 32.1902 7.80969 26.7217 7.80969 19.9999C7.80969 13.2782 13.2782 7.80966 20 7.80966Z"/>
        <path d="M19.8315 35.7111C19.3915 35.7111 19.0347 36.0678 19.0347 36.5079V39.2031C19.0347 39.6432 19.3915 39.9999 19.8315 39.9999C20.2716 39.9999 20.6284 39.6432 20.6284 39.2031V36.5079C20.6284 36.0678 20.2716 35.7111 19.8315 35.7111Z"/>
        <path d="M32.1172 31.2285C31.9617 31.0729 31.7577 30.9951 31.5538 30.9951C31.3499 30.9951 31.146 31.0729 30.9904 31.2285C30.6792 31.5398 30.6792 32.0443 30.9904 32.3555L32.8961 34.2612C33.2073 34.5724 33.7119 34.5724 34.023 34.2612C34.3342 33.95 34.3342 33.4454 34.023 33.1343L32.1172 31.2285Z"/>
        <path d="M35.7112 20.1684C35.7112 20.6085 36.0679 20.9652 36.508 20.9652H39.2032C39.6433 20.9652 40 20.6085 40 20.1684C40 19.7283 39.6433 19.3716 39.2032 19.3716H36.508C36.0679 19.3716 35.7112 19.7283 35.7112 20.1684Z"/>
        <path d="M20.1685 4.28879C20.6085 4.28879 20.9653 3.93205 20.9653 3.49198V0.796755C20.9653 0.356675 20.6085 -5.76973e-05 20.1685 -5.76973e-05C19.7284 -5.76973e-05 19.3716 0.356675 19.3716 0.796755V3.49198C19.3716 3.93205 19.7284 4.28879 20.1685 4.28879Z"/>
        <path d="M7.88262 8.77133C8.19386 9.08249 8.6984 9.08249 9.00955 8.77133C9.32071 8.4601 9.32071 7.95556 9.00955 7.6444L7.10382 5.73866C6.94828 5.58305 6.74429 5.50528 6.54039 5.50528C6.33649 5.50528 6.1325 5.58305 5.97688 5.73866C5.66573 6.0499 5.66573 6.55444 5.97688 6.8656L7.88262 8.77133Z"/>
        <path d="M0.796785 20.6283H3.49201C3.93209 20.6283 4.28882 20.2716 4.28882 19.8315C4.28882 19.3914 3.93209 19.0347 3.49201 19.0347H0.796785C0.356706 19.0347 -2.71797e-05 19.3914 -2.71797e-05 19.8315C-2.71797e-05 20.2716 0.356706 20.6283 0.796785 20.6283Z"/>
        <path d="M6.16788 34.7209L8.76517 32.1236C9.07632 31.8124 9.07632 31.3079 8.76517 30.9967C8.60963 30.8411 8.40565 30.7633 8.20174 30.7633C7.99784 30.7633 7.79385 30.8411 7.63824 30.9967L5.04095 33.594C4.72979 33.9052 4.72971 34.4098 5.04095 34.7209C5.35218 35.0321 5.85672 35.0321 6.16788 34.7209Z"/>
        <path d="M32.1679 8.72092L34.7652 6.12363C35.0763 5.81239 35.0763 5.30785 34.7652 4.9967C34.6096 4.84108 34.4056 4.76331 34.2017 4.76331C33.9978 4.76331 33.7939 4.84108 33.6382 4.9967L31.0409 7.59399C30.7298 7.90522 30.7297 8.40976 31.0409 8.72092C31.3522 9.03207 31.8567 9.03207 32.1679 8.72092Z"/>
        <path d="M5.04239 32.1693L7.63968 34.7666C7.95091 35.0777 8.45546 35.0777 8.76661 34.7666C8.92223 34.611 9 34.4071 9 34.2031C9 33.9992 8.92223 33.7953 8.76661 33.6396L6.16932 31.0424C5.85809 30.7312 5.35354 30.7311 5.04239 31.0424C4.73123 31.3536 4.73123 31.8581 5.04239 32.1693Z"/>
        <path d="M31.0424 6.16928L33.6397 8.76657C33.9509 9.07773 34.4555 9.07773 34.7666 8.76657C34.9222 8.61103 35 8.40705 35 8.20315C35 7.99924 34.9222 7.79526 34.7666 7.63964L32.1693 5.04235C31.8581 4.7312 31.3535 4.73112 31.0424 5.04235C30.7312 5.35359 30.7312 5.85813 31.0424 6.16928Z"/>
    </symbol>
    <symbol id='theme_Moon' viewBox='0 0 40 36'>
        <path d="M22.0718 4.1199C21.7716 3.99164 21.4221 4.05205 21.1814 4.27558C20.9418 4.49933 20.8565 4.84322 20.9637 5.15318C22.8518 10.601 21.348 16.6608 17.1326 20.591C12.9175 24.522 6.76635 25.5999 1.46496 23.3361C1.1636 23.2083 0.814371 23.2684 0.574582 23.4922C0.335024 23.716 0.249751 24.0598 0.356866 24.3698C1.09924 26.5112 2.26519 28.4437 3.82266 30.1136C6.77867 33.2836 10.7928 35.1127 15.1248 35.264C15.3191 35.2709 15.5119 35.2742 15.7055 35.2742C19.8247 35.2742 23.731 33.7381 26.7593 30.9143C29.9293 27.9578 31.7588 23.9441 31.9101 19.6119C32.0614 15.2799 30.5164 11.1481 27.5604 7.97814C26.0027 6.30821 24.1564 5.01005 22.0718 4.1199ZM30.2536 19.554C30.1179 23.4436 28.4754 27.0477 25.6286 29.7021C22.7823 32.3563 19.0676 33.7388 15.1827 33.6082C11.2928 33.4723 7.68903 31.8298 5.03485 28.9834C4.05711 27.9348 3.25084 26.7716 2.62697 25.5102C8.07799 27.1046 14.0418 25.7395 18.263 21.8032C22.4837 17.8674 24.2638 12.0146 23.0514 6.46366C24.2663 7.17443 25.3707 8.0597 26.348 9.10831C29.0026 11.9547 30.3896 15.6646 30.2536 19.554Z"/>
        <path d="M11.0135 4.9278C11.1752 5.08952 11.3874 5.17061 11.5993 5.17061C11.8112 5.17061 12.0233 5.08975 12.185 4.9278L13.3717 3.74117L14.5583 4.9278C14.72 5.08952 14.9322 5.17061 15.1441 5.17061C15.356 5.17061 15.5681 5.08975 15.7298 4.9278C16.0535 4.60413 16.0535 4.07994 15.7298 3.75627L14.5434 2.56987L15.6987 1.41461C16.0224 1.09094 16.0224 0.566745 15.6987 0.243076C15.375 -0.0805933 14.8508 -0.0805933 14.5272 0.243076L13.3719 1.39834L12.2164 0.242844C11.8927 -0.0808258 11.3685 -0.0808258 11.0449 0.242844C10.7212 0.566513 10.7212 1.0907 11.0449 1.41437L12.2004 2.56987L11.0135 3.75627C10.6898 4.07994 10.6898 4.60413 11.0135 4.9278Z"/>
        <path d="M39.7574 12.8701L38.5707 11.6835L39.7262 10.528C40.0499 10.2043 40.0499 9.68013 39.7262 9.35646C39.4026 9.03279 38.8784 9.03279 38.5547 9.35646L37.3992 10.512L36.2437 9.35646C35.92 9.03279 35.3958 9.03279 35.0722 9.35646C34.7485 9.68013 34.7485 10.2043 35.0722 10.528L36.2277 11.6835L35.041 12.8701C34.7174 13.1938 34.7174 13.718 35.041 14.0416C35.2027 14.2034 35.4149 14.2845 35.6268 14.2845C35.8387 14.2845 36.0508 14.2036 36.2126 14.0416L37.3992 12.855L38.5858 14.0416C38.7475 14.2034 38.9597 14.2845 39.1716 14.2845C39.3835 14.2845 39.5956 14.2036 39.7574 14.0416C40.0808 13.718 40.0808 13.1938 39.7574 12.8701Z"/>
        <path d="M1.41428 19.8415L2.60091 18.6548L3.78755 19.8415C3.94927 20.0032 4.16141 20.0843 4.37331 20.0843C4.58522 20.0843 4.79736 20.0034 4.95908 19.8415C5.28275 19.5178 5.28275 18.9936 4.95908 18.6699L3.77244 17.4833L4.92794 16.3278C5.25161 16.0041 5.25161 15.4799 4.92794 15.1563C4.60427 14.8326 4.08008 14.8326 3.75641 15.1563L2.60091 16.3118L1.44565 15.1563C1.12198 14.8326 0.597789 14.8326 0.27412 15.1563C-0.0495495 15.4799 -0.0495495 16.0041 0.27412 16.3278L1.42962 17.4833L0.242752 18.6697C-0.0809173 18.9934 -0.0809173 19.5176 0.242752 19.8412C0.404471 20.0029 0.61661 20.084 0.828517 20.084C1.04042 20.084 1.25233 20.0032 1.41428 19.8415Z"/>
    </symbol>
    <symbol id='theme_line' viewBox='0 0 1 80'>
        <line x1="0.5" y1="-2.18557e-08" x2="0.500004" y2="80"/>
    </symbol>
    <symbol id='circle' viewBox='0 0 60 60'>
        <circle cx="30" cy="30" r="29"/>
    </symbol>
</svg>